<?xml version="1.0" encoding="utf-8"?>
<!-- Generator: Adobe Illustrator 22.0.1, SVG Export Plug-In . SVG Version: 6.00 Build 0)  -->
<svg version="1.1" id="Layer_1" xmlns="http://www.w3.org/2000/svg" xmlns:xlink="http://www.w3.org/1999/xlink" x="0px" y="0px"
	 width="138.9px" height="166.4px" viewBox="0 0 138.9 166.4" style="enable-background:new 0 0 138.9 166.4;" xml:space="preserve"
	>
<style type="text/css">
	.st0{fill:#FFFFFF;stroke:#0AD2FF;stroke-width:5;stroke-miterlimit:10;}
	.st1{fill:#06A9FE;}
</style>
<path class="st1" d="M0,127.5c0.1,0,0.2-0.1,0.2-0.1c2.5-11.1,10.1-17.4,20.3-21.2c7-2.6,13.9-5.4,21.3-6.4c4.2-0.6,5.7-3.4,7.4-6.5
	c1.5-2.7,1.4-4.7-1.2-7c-5.5-4.7-8.9-10.9-11.2-17.7c-0.4-1.3-1.1-2.1-2.4-2.7c-5.1-2.4-6.9-7.3-6.1-12c1.2-6.9-0.4-13.6,0.4-20.4
	C30.6,16.7,40,5.7,56.5,1.7C67.7-1,78.8-0.6,89.5,4c15.2,6.6,23.5,22.2,20.6,38.8c-0.4,2.2-0.5,4.3,0.2,6.6
	c1.3,4.5,0.4,8.8-1.8,12.8c-0.7,1.3-1.5,2.7-2.8,3c-3.3,0.7-3.6,3.3-4.6,5.7c-2.6,6.4-6.2,12.1-11.5,16.6c-1.2,1-1.6,2-0.9,3.4
	c0.6,1.2,1,2.4,1.6,3.6c1.3,2.6,3.2,4.1,6.3,4.8c9.4,2,18.5,5.1,27.2,9.3c8.8,4.3,13.9,11.3,15.1,21.1c0,2.7-0.1,5.5,0,8.2
	c0.1,7.8-3.4,13.3-10.4,16.7C117.6,160,106,163,94,164.8c-3.9,0.6-8,0.4-11.8,1.6c-8.7,0-17.4,0-26,0c-2.1-1.1-4.5-0.8-6.8-1.1
	c-13.5-1.6-26.6-4.7-38.9-10.8c-4.6-2.3-7.9-5.7-9.6-10.5c-0.2-0.5-0.1-1.2-0.8-1.4C0,137.7,0,132.6,0,127.5z M69.3,90.3
	c5.9,0.1,11.1-1.9,15.6-5.6c6.6-5.3,10.6-12.4,13-20.4c0.6-1.9,1.1-3.7,3.7-3.2c1.3,0.3,1.9-0.6,2.4-1.5c1.7-3.2,2.2-6.6,0.9-10.1
	c-0.8-2.2-2.3-3.1-4.6-2s-3.7,0.2-4.4-2.2c-0.8-2.8-1.9-5.5-2.7-8.3c-0.4-1.5-1.3-2.4-2.7-3c-6.8-2.7-13.4-2.6-19.7,1.5
	c-5.7,3.7-11.9,4.8-18.6,3.8c-2.3-0.4-5-2.7-6.7-1.2s-1.8,4.6-2.6,7c-0.9,2.8-1.8,3.3-4.6,2.3c-2.2-0.9-3.7-0.2-4.5,2
	c-1.2,3.7-1,7.2,1.1,10.6c0.5,0.8,1.2,1.4,2.3,1.2c2.2-0.4,3,1,3.5,2.8c1.3,5.1,3.5,9.9,6.7,14.2C52.9,85.5,59.9,90.2,69.3,90.3z
	 M71.9,142.4c0,5.7,0.1,11.3,0,17c0,1.6,0.4,2.2,2,2.1c3.1-0.3,6.2-0.3,9.3-0.6c13.5-1.1,26.6-3.9,39.2-9
	c8.1-3.2,12.4-8.2,11.3-17.2c-0.1-0.6,0-1.3,0-2c0.1-9-4.1-15.4-12.1-19.4c-6.9-3.4-14.2-5.8-21.6-8c-3.9-1.1-7-1.6-8.8,3
	c-0.4,1.1-1.6,1.9-2.4,2.7c-4.4,4.5-9.4,8.2-14.7,11.5c-1.7,1-2.2,2.2-2.1,4.1C72,131.8,71.9,137.1,71.9,142.4z M66.8,142.6
	c0-5.3-0.1-10.6,0.1-15.8c0.1-2.1-0.6-3.3-2.4-4.5c-7.1-4.7-14.3-9.5-18.9-17.1c-0.7-1.2-1.5-0.8-2.4-0.6c-9.3,2-18.3,4.5-26.7,9.2
	c-6.4,3.5-10.2,8.8-11.2,16c-0.3,2.3,0,4.7-0.2,7.1c-0.4,6.8,2.7,11.2,8.8,14c16.2,7.4,33.4,10,51,10.7c1.8,0.1,2-0.7,1.9-2.2
	C66.8,153.7,66.8,148.1,66.8,142.6z M70.4,5.3c-5.2,0-9.7,0.5-14.1,1.7c-17.6,4.9-23.6,18.9-22.6,32.8c0.1,0.8-0.4,2.5,1.3,2.2
	c1.4-0.2,3.5,0.9,4.1-1.7c0.6-2.4,1.5-4.7,2.4-6.9c0.9-2.5,2.3-3,4.6-1.6c7.7,4.4,15.1,3.9,22.6-0.8c8.1-5,16.6-5,25.1-0.9
	c1.9,0.9,3.2,2.2,3.7,4.3c0.6,2.2,1.5,4.3,2.2,6.4c0.8,2.3,2.7,0.8,4.1,1.3c1,0.3,1.3-0.4,1.3-1.3c0.9-11-2-23-13.9-30.1
	C84.7,6.7,77.3,5.4,70.4,5.3z M56,92.3c-1.1-0.1-1,0.7-1.3,1.3c-0.9,2.2-1.7,4.5-3.4,6.1c-2.1,2.1-1.4,3.7,0.2,5.5
	c4.8,5.4,10.6,9.5,16.6,13.5c0.7,0.4,1.3,0.8,2.1,0.3c6.5-4.3,13-8.8,17.9-14.9c1-1.2,1-2.2-0.1-3.5c-1.7-1.8-3-3.9-3.7-6.3
	c-0.6-2-1.4-2.1-3.2-1.3c-7.9,3.6-15.8,3.5-23.8,0C57,92.7,56.4,92.5,56,92.3z"/>
</svg>
