<?xml version="1.0" encoding="utf-8"?>
<!-- Generator: Adobe Illustrator 22.0.1, SVG Export Plug-In . SVG Version: 6.00 Build 0)  -->
<svg version="1.1" id="Layer_1" xmlns="http://www.w3.org/2000/svg" xmlns:xlink="http://www.w3.org/1999/xlink" x="0px" y="0px"
	 width="149.8px" height="149.2px" viewBox="0 0 149.8 149.2" style="enable-background:new 0 0 149.8 149.2;" xml:space="preserve"
	>
<style type="text/css">
	.st0{fill:#06A9FE;}
</style>
<g>
	<g>
		<path class="st0" d="M66.7,31.1c0-8.9-7.2-16.2-16.1-16.2s-16.1,7.3-16.1,16.2s7.2,16.1,16.1,16.1C59.5,47.2,66.7,39.9,66.7,31.1z
			 M50.6,42.6C44.2,42.6,39,37.4,39,31s5.2-11.6,11.6-11.6S62.2,24.6,62.2,31C62.2,37.5,57,42.6,50.6,42.6z"/>
	</g>
	<g>
		<path class="st0" d="M134.9,36.2c0.6,0,1.2-0.3,1.6-0.7c0.4-0.4,0.7-1,0.7-1.6c0-0.5-0.3-1.1-0.7-1.6c-0.8-0.8-2.4-0.8-3.2,0
			c-0.4,0.5-0.6,1.1-0.6,1.6c0,0.6,0.3,1.2,0.6,1.6C133.7,36,134.3,36.2,134.9,36.2z"/>
	</g>
	<g>
		<path class="st0" d="M126,41.3c0.4,0,0.8-0.1,1.1-0.3c1.1-0.7,1.5-2,0.9-3.1c-0.6-1.1-2-1.5-3.1-0.9c-1.1,0.7-1.4,2-0.8,3.1
			C124.5,40.9,125.2,41.3,126,41.3z"/>
	</g>
	<g>
		<path class="st0" d="M117.1,46.4c0.6,0,1.2-0.2,1.6-0.7c0.4-0.4,0.6-0.9,0.6-1.5s-0.2-1.2-0.6-1.6c-0.9-0.9-2.4-0.9-3.2,0
			c-0.4,0.4-0.6,1-0.6,1.6s0.2,1.1,0.6,1.5C115.9,46.2,116.5,46.4,117.1,46.4z"/>
	</g>
	<g>
		<path class="st0" d="M148.6,13.4c-0.7-0.4-1.6-0.4-2.3,0L99,40.3L81.3,30.2C81,13.5,67.4,0,50.6,0S20.2,13.5,19.9,30.2L1.1,41
			C0.4,41.4,0,42.1,0,43v103.9c0,0.8,0.4,1.6,1.1,2c0.3,0.2,0.7,0.3,1.1,0.3s0.8-0.1,1.1-0.3L50.6,122l47.3,26.9
			c0.1,0,0.1,0,0.2,0.1c0.1,0,0.1,0,0.2,0.1c0.3,0.1,0.5,0.1,0.8,0.1l0,0l0,0c0.2,0,0.5-0.1,0.8-0.1c0-0.1,0.1-0.1,0.2-0.1
			c0-0.1,0.1-0.1,0.2-0.1l48.4-27.6c0.7-0.4,1.1-1.2,1.1-2V15.4C149.7,14.6,149.3,13.8,148.6,13.4z M50.6,4.6
			c14.5,0,26.2,11.7,26.2,26.2c0,18.4-20.1,46-26.2,54.1c-6.1-8.1-26.2-35.7-26.2-54.1C24.4,16.3,36.2,4.6,50.6,4.6z M52.9,92
			l12.4,7c-3.5,2.6-7.6,4.3-12.4,4.8V92z M54.3,87.6c4.1-5.4,14-18.8,20.6-33.1l10.9,6.3c-1,5.4-5.5,24.3-16.8,35.2L54.3,87.6z
			 M4.5,44.3l15.7-9c0.6,4.8,2.2,9.9,4.3,15L4.4,61.7L4.5,44.3L4.5,44.3z M4.5,67l21.9-12.5C33,68.8,42.9,82.2,47,87.6L4.5,111.8
			C4.5,111.8,4.5,67,4.5,67z M48.4,118l-19.3,11c1.7-6.7,6.6-18.7,19.3-20.3V118z M48.4,104.1c-19.2,1.9-23.7,22.6-24.6,27.7
			l-19.3,11v-25.9l43.9-25V104.1z M96.8,142.9L53,118v-9.6c6.6-0.5,12.2-3.1,16.8-6.7l27.1,15.4v25.8H96.8z M96.8,111.8L73.3,98.4
			c10.8-11.1,15.3-28.2,16.8-35.2l6.8,3.8v44.8H96.8z M101.3,142.9V117l22.2-12.7l-14.8,34.4L101.3,142.9z M145.2,118l-29.9,17
			l29.9-69.7V118z M145.2,53.9l-18.8,43.5l-25.1,14.4V67l43.8-25v11.9H145.2z M145.2,36.8L99.1,63.1L76.8,50.4
			c2.1-5.1,3.7-10.2,4.3-15L98,45c0.7,0.4,1.6,0.4,2.3,0l45-25.7v17.5H145.2z"/>
	</g>
</g>
</svg>
