<?xml version="1.0" encoding="utf-8"?>
<!-- Generator: Adobe Illustrator 22.0.1, SVG Export Plug-In . SVG Version: 6.00 Build 0)  -->
<svg version="1.1" id="Layer_1" xmlns="http://www.w3.org/2000/svg" xmlns:xlink="http://www.w3.org/1999/xlink" x="0px" y="0px"
	 width="154.4px" height="154.4px" viewBox="0 0 154.4 154.4" style="enable-background:new 0 0 154.4 154.4;" xml:space="preserve"
	>
<style type="text/css">
	.st0{fill:#FFFFFF;stroke:#0AD2FF;stroke-width:5;stroke-miterlimit:10;}
	.st1{fill:#06A9FE;}
</style>
<g>
	<g>
		<path class="st1" d="M39.8,27.1h49.7c1.3,0,2.3-1,2.3-2.4c0-1.2-1-2.4-2.3-2.4H39.8c-1.3,0-2.3,1.1-2.3,2.4
			C37.5,26,38.5,27.1,39.8,27.1z"/>
	</g>
	<g>
		<path class="st1" d="M63.2,42.5c0,1.3,1,2.4,2.3,2.4h49.1c1.3,0,2.4-1,2.4-2.4c0-1.2-1.1-2.3-2.4-2.3H65.5
			C64.2,40.2,63.2,41.2,63.2,42.5z"/>
	</g>
	<g>
		<path class="st1" d="M39.8,44.8h13.3c1.3,0,2.3-1,2.3-2.4c0-1.2-1-2.3-2.3-2.3H39.8c-1.3,0-2.3,1-2.3,2.3
			C37.5,43.8,38.5,44.8,39.8,44.8z"/>
	</g>
	<g>
		<path class="st1" d="M108.5,58h-24c-1.3,0-2.4,1-2.4,2.4c0,1.3,1.1,2.4,2.4,2.4h24c1.3,0,2.4-1,2.4-2.4
			C110.8,59,109.8,58,108.5,58z"/>
	</g>
	<g>
		<path class="st1" d="M39.8,62.7H72c1.3,0,2.4-1,2.4-2.4c0-1.3-1.1-2.4-2.4-2.4H39.8c-1.3,0-2.3,1-2.3,2.4
			C37.5,61.6,38.5,62.7,39.8,62.7z"/>
	</g>
	<g>
		<path class="st1" d="M95.9,116.1h18.7c1.3,0,2.4-1,2.4-2.4c0-1.3-1.1-2.3-2.4-2.3H95.9c-1.3,0-2.3,1-2.3,2.3
			C93.6,115,94.6,116.1,95.9,116.1z"/>
	</g>
	<g>
		<path class="st1" d="M39.8,116.1h43.6c1.3,0,2.4-1,2.4-2.4c0-1.3-1-2.3-2.4-2.3H39.8c-1.3,0-2.3,1-2.3,2.3
			C37.5,115,38.5,116.1,39.8,116.1z"/>
	</g>
	<g>
		<path class="st1" d="M39.8,133.8h16.9c1.3,0,2.3-1,2.3-2.3s-1-2.4-2.3-2.4H39.8c-1.3,0-2.3,1-2.3,2.4
			C37.5,132.9,38.5,133.8,39.8,133.8z"/>
	</g>
	<g>
		<path class="st1" d="M98.3,129.2H69.2c-1.3,0-2.3,1-2.3,2.4c0,1.3,1,2.3,2.3,2.3h29.1c1.3,0,2.3-1,2.3-2.3
			C100.6,130.2,99.6,129.2,98.3,129.2z"/>
	</g>
	<g>
		<path class="st1" d="M150.8,72.7c-0.4-0.7-1.2-1.3-2.1-1.3h-12.1h-3.3V24.7c0-0.1,0-0.1,0-0.1c0-0.2,0-0.4-0.1-0.6
			c0-0.1,0-0.1-0.1-0.2c-0.1-0.2-0.3-0.5-0.5-0.7L110.1,0.6c-0.2-0.2-0.5-0.3-0.7-0.4c-0.1-0.1-0.1-0.1-0.2-0.1
			C109,0,108.8,0,108.6,0h-0.1H23.4c-1.3,0-2.3,1-2.3,2.4v73.8l-19.7,9C0.6,85.6,0,86.4,0,87.3c0,0.9,0.5,1.7,1.4,2.2l19.7,9V152
			c0,1.3,1,2.4,2.3,2.4H131c1.3,0,2.3-1,2.3-2.4v-49h1.1h2.1l0,0l0,0l0,0h12.3c0.9,0,1.7-0.6,2.1-1.3
			C155.6,92.3,155.6,82,150.8,72.7z M32.1,90.9c-0.1,0.7-0.2,1.3-0.4,2c-0.1,0.3-0.2,0.6-0.3,1c-0.2,0.6-0.3,1.2-0.6,1.8
			c-0.1,0.3-0.2,0.7-0.4,1c-0.1,0.2-0.2,0.3-0.2,0.6l-10.4-4.7c1.3-3.6,1.3-7.4,0-11l10.4-4.7c0.1,0.2,0.2,0.3,0.2,0.6
			c0.1,0.3,0.2,0.7,0.4,1c0.2,0.6,0.4,1.2,0.6,1.8c0.1,0.3,0.2,0.7,0.3,1c0.1,0.7,0.3,1.3,0.4,2c0,0.3,0.1,0.6,0.1,0.9
			c0.1,0.9,0.2,1.9,0.2,2.8c0,0.1,0,0.1,0,0.1l0,0c0,1-0.1,1.9-0.2,2.9C32.2,90.4,32.1,90.7,32.1,90.9z M36.9,84.8
			c0-0.3,0-0.6-0.1-1c0-0.3-0.1-0.6-0.1-1c-0.1-0.8-0.3-1.6-0.5-2.4c-0.1-0.3-0.1-0.7-0.2-1c-0.3-1-0.6-1.9-0.9-2.9
			c0-0.1-0.1-0.3-0.1-0.3c0-0.1,0-0.1,0-0.1h100.1c0.1,0.3,0.2,0.6,0.4,0.8c0.2,0.4,0.3,0.8,0.5,1.2c0.2,0.6,0.3,1,0.5,1.6
			c0.1,0.4,0.2,0.8,0.3,1.3s0.2,1,0.3,1.6c0.1,0.4,0.1,0.8,0.2,1.3c0,0.3,0,0.6,0.1,0.8L36.9,84.8L36.9,84.8z M110.8,7.8l7.3,7.3
			l7.3,7.2h-14.6V7.8z M25.8,4.6h80.4v20.1c0,1.3,1,2.4,2.3,2.4h20.2v44.4H31.5c0,0,0,0-0.1,0c0,0-0.1,0-0.1,0.1
			c-0.2,0-0.5,0.1-0.7,0.1c0,0-0.1,0-0.1,0.1l-4.7,2.1C25.8,73.9,25.8,4.6,25.8,4.6z M15.6,83.6c0.8,2.4,0.8,4.7,0,7l-7.7-3.5
			L15.6,83.6z M128.7,149.5H25.8v-49l4.7,2.2h0.1c0.3,0.1,0.6,0.2,0.9,0.2l0,0l0,0l0,0h97.2V149.5z M134.5,98.1H35c0,0,0,0,0-0.1
			s0.1-0.2,0.1-0.3c0.3-1,0.6-2,0.9-3c0.1-0.3,0.1-0.6,0.2-1c0.2-0.8,0.3-1.6,0.5-2.4c0-0.3,0.1-0.6,0.1-1c0-0.3,0.1-0.6,0.1-0.9
			h100.6v0.1c-0.1,0.6-0.2,1.1-0.3,1.7c-0.1,0.3-0.1,0.8-0.2,1.1c-0.1,0.6-0.3,1.3-0.5,1.9c-0.1,0.3-0.1,0.6-0.3,1
			c-0.3,0.9-0.7,1.9-1.1,2.8L134.5,98.1L134.5,98.1z M147.3,98.1h-7c0,0,0,0,0-0.1s0-0.2,0.1-0.3c0.4-1,0.7-2,0.9-3
			c0.1-0.3,0.2-0.6,0.2-1c0.2-0.8,0.3-1.6,0.4-2.4c0-0.3,0.1-0.6,0.1-1c0.1-1,0.2-2.1,0.2-3.1v-0.1c0-0.1,0-0.1,0-0.1
			c0-1-0.1-2.2-0.2-3.2c0-0.3-0.1-0.6-0.1-1c-0.1-0.8-0.3-1.6-0.4-2.4c-0.1-0.3-0.1-0.7-0.2-1c-0.2-1-0.5-1.9-0.9-2.9
			c0-0.1,0-0.3-0.1-0.3c0-0.1,0-0.1,0-0.1h7C150.5,83.4,150.5,90.9,147.3,98.1z"/>
	</g>
</g>
</svg>
