<?xml version="1.0" encoding="utf-8"?>
<!-- Generator: Adobe Illustrator 22.0.1, SVG Export Plug-In . SVG Version: 6.00 Build 0)  -->
<svg version="1.1" id="Layer_1" xmlns="http://www.w3.org/2000/svg" xmlns:xlink="http://www.w3.org/1999/xlink" x="0px" y="0px"
	 width="157.9px" height="158px" viewBox="0 0 157.9 158" style="enable-background:new 0 0 157.9 158;" xml:space="preserve">
<style type="text/css">
	.st0{fill:#FFFFFF;stroke:#0AD2FF;stroke-width:5;stroke-miterlimit:10;}
	.st1{fill:#06A9FE;}
</style>
<g>
	<g>
		<path class="st1" d="M66.5,100.4c0,6.8,5.5,12.3,12.2,12.3c6.8,0,12.3-5.5,12.3-12.3s-5.5-12.2-12.3-12.2
			C72,88.2,66.5,93.7,66.5,100.4z M86.2,100.4c0,4.1-3.3,7.5-7.5,7.5c-4.1,0-7.4-3.3-7.4-7.5c0-4.1,3.3-7.4,7.4-7.4
			C82.8,93,86.2,96.4,86.2,100.4z"/>
	</g>
	<g>
		<path class="st1" d="M27.7,112.7c6.7,0,12.2-5.5,12.2-12.3s-5.5-12.2-12.2-12.2c-6.8,0-12.3,5.5-12.3,12.2S20.9,112.7,27.7,112.7z
			 M27.7,93c4.1,0,7.4,3.3,7.4,7.4c0,4.1-3.3,7.5-7.4,7.5s-7.5-3.3-7.5-7.5C20.2,96.4,23.6,93,27.7,93z"/>
	</g>
	<g>
		<path class="st1" d="M129.8,112.7c6.8,0,12.2-5.5,12.2-12.3s-5.5-12.2-12.2-12.2s-12.2,5.5-12.2,12.2S123,112.7,129.8,112.7z
			 M129.8,93c4.1,0,7.4,3.3,7.4,7.4c0,4.1-3.3,7.5-7.4,7.5c-4.1,0-7.5-3.3-7.5-7.5C122.3,96.4,125.7,93,129.8,93z"/>
	</g>
	<g>
		<path class="st1" d="M144.3,116.8h-28.6c-4.7,0-8.8,2.3-11.2,5.9c-2.5-3.6-6.6-5.9-11.2-5.9H64.7c-4.6,0-8.7,2.3-11.2,5.9
			c-2.5-3.6-6.6-5.9-11.2-5.9H13.6c-7.5,0-13.6,6.1-13.6,13.6v25.2c0,1.4,1.1,2.4,2.4,2.4h11.2h28.6h11.2h11.2h28.6h11.2h11.2h28.6
			h11.3c1.3,0,2.4-1.1,2.4-2.4v-25.2C157.9,122.9,151.8,116.8,144.3,116.8z M42.1,129.9c-1.3,0-2.4,1.1-2.4,2.4v20.9H15.9v-20.9
			c0-1.3-1.1-2.4-2.4-2.4s-2.4,1.1-2.4,2.4v20.9H4.7v-22.8c0-4.9,4-8.9,8.9-8.9h28.6c4.9,0,8.9,4,8.9,8.9v22.8h-6.4v-20.9
			C44.6,131.1,43.5,129.9,42.1,129.9z M93.2,129.9c-1.3,0-2.4,1.1-2.4,2.4v20.9H67v-20.9c0-1.3-1.1-2.4-2.4-2.4
			c-1.3,0-2.4,1.1-2.4,2.4v20.9h-6.4v-22.8c0-4.9,3.9-8.9,8.8-8.9h28.6c4.9,0,8.9,4,8.9,8.9v22.8h-6.5v-20.9
			C95.6,131.1,94.5,129.9,93.2,129.9z M153.1,153.2h-6.4v-20.9c0-1.3-1.1-2.4-2.4-2.4c-1.4,0-2.4,1.1-2.4,2.4v20.9h-23.8v-20.9
			c0-1.3-1.1-2.4-2.4-2.4c-1.3,0-2.4,1.1-2.4,2.4v20.9h-6.5v-22.8c0-4.9,4-8.9,8.9-8.9h28.6c4.9,0,8.8,4,8.8,8.9L153.1,153.2
			L153.1,153.2z"/>
	</g>
	<g>
		<path class="st1" d="M78.5,25.1c6.9,0,12.5-5.6,12.5-12.5S85.4,0,78.5,0S66,5.7,66,12.6S71.6,25.1,78.5,25.1z M78.5,4.8
			c4.3,0,7.8,3.5,7.8,7.8s-3.5,7.7-7.8,7.7s-7.7-3.5-7.7-7.7S74.2,4.8,78.5,4.8z"/>
	</g>
	<g>
		<path class="st1" d="M40.6,69.5h5.8v29.7c0,1.3,1.1,2.4,2.4,2.4s2.4-1.1,2.4-2.4V69.5h1.2H64h29.5h11.6h1.2v29.7
			c0,1.3,1.1,2.4,2.4,2.4c1.3,0,2.4-1.1,2.4-2.4V69.5h6.2c1.3,0,2.4-1,2.4-2.3c0-1.4-1.1-2.4-2.4-2.4h-9.8V43.4c0-7.7-6.3-14-14-14
			H64c-7.7,0-14,6.3-14,14v21.3h-9.4c-1.3,0-2.4,1.1-2.4,2.4C38.2,68.5,39.3,69.5,40.6,69.5z M54.8,43.4c0-5,4.1-9.2,9.2-9.2h12.5
			v26c0,1.3,1.1,2.4,2.4,2.4c1.3,0,2.4-1.1,2.4-2.4v-26h12.2c5.1,0,9.2,4.1,9.2,9.2v21.3h-6.8V45.4c0-1.3-1.1-2.4-2.4-2.4
			c-1.3,0-2.4,1.1-2.4,2.4v19.3H66.4V45.4c0-1.3-1.1-2.4-2.4-2.4c-1.3,0-2.4,1.1-2.4,2.4v19.3h-6.8L54.8,43.4L54.8,43.4z"/>
	</g>
</g>
</svg>
